<svg xmlns="http://www.w3.org/2000/svg" xml:space="preserve" style="enable-background:new 0 0 495.654 495.654" viewBox="0 0 495.654 495.654"><path d="M388.376 323.098c74.293-48.257 83.975-104.876 84.023-130.237 0-2.371-1.337-4.546-3.439-5.621-2.12-1.084-4.402-.441-6.578.502-27.769 12.042-74.928-49.043-165.898-73.077-42.74-11.292-73.007-76.291-73.007-76.291l-.018.007C212.073 16.792 192.516 0 163.261 0 112.249 0 51.172 51.019 51.172 89.629c0 1.553.177 3.074.305 4.603L25.23 119.11c-1.877 1.775-2.483 4.513-1.528 6.913.958 2.396 3.282 3.972 5.862 3.972h38.635c.256.272.526.527.781.796-31.647 158.709 63.689 209.33 134.432 225.343l2.977 18.604-28.824 52.992c-.208.391-.208.822-.382 1.227l-26.453-8.337c-4.252-1.319-8.887 1.037-10.225 5.327-1.357 4.301 1.02 8.879 5.319 10.235l15.799 4.976-18.03 12.653c-3.693 2.589-4.589 7.669-1.991 11.357 1.594 2.26 4.111 3.469 6.673 3.469 1.626 0 3.265-.477 4.686-1.481l29.431-20.664h36.807c4.505 0 8.153-3.644 8.153-8.154 0-4.505-3.648-8.154-8.153-8.154h-15.118l27.888-51.248 22.743-15.816c11.1.549 17.947.247 17.947.247l.018-.086c6.479-.097 12.738-.553 18.838-1.252l18.696 21.818-3.899 68.482h-31.675c-4.51 0-8.154 3.648-8.154 8.154 0 4.51 3.645 8.154 8.154 8.154h27.31l-2.645 17.657c-.667 4.459 2.407 8.607 6.85 9.277.415.054.814.085 1.226.085 3.969 0 7.441-2.898 8.043-6.944l3.282-21.882 31.611-9.349c4.315-1.273 6.784-5.811 5.511-10.127-1.275-4.323-5.829-6.823-10.127-5.51l-14.526 4.291 3.441-60.296 53.763-62.741z"/></svg>