<svg xmlns="http://www.w3.org/2000/svg" xml:space="preserve" style="enable-background:new 0 0 489.3 489.3" viewBox="0 0 489.3 489.3"><path d="M329 17.49c-54.8 0-103.3 60.2-132.5 135.5 24.5-24.5 53.2-5.3 55.9-5 .4-.8 22.1-26.8 22.1-26.8s48.6 63.8 63.7 102.5c25.6 59.4 29.5 112.3 10.5 156.9-14 33.8-41.2 62.1-78.5 82.3 18.3 5.8 38.1 8.5 58.7 8.5 88.6 0 160.4-48.6 160.4-174 .1-124.9-71.8-279.9-160.3-279.9z"/><path d="M320.1 231.89c-11.7-27.2-28-54-46.6-78.8-3.9 4.3-6.6 10.1-11.3 12.8-12.8 7.4-29.1-7.8-43.5-3.5-14.8 4.3-18.6 26.4-33.8 29.5-17.5 3.5-29.9-21.8-47.4-20.6-2.7 22.9-5 45.8-7.8 68.7-26.8-12-53.2-24.1-80-36.5-3.1 31.1-1.2 62.5 6.6 92.8-18.6-7.8-37.3-16.3-56.3-24.5 5.4 30.7 14.4 60.6 26 87.8 50.1 115 135.2 130.9 216.3 95.5s127.9-108.2 77.8-223.2z"/></svg>